<?xml version="1.0" encoding="UTF-8"?>
<svg id="Capa_2" data-name="Capa 2" xmlns="http://www.w3.org/2000/svg" viewBox="0 0 532.2219 532.22192">
  <defs>
    <style>
      .cls-1 {
        fill: #e30613;
      }
    </style>
  </defs>
  <path d="M489.97595,303.32094c-5.04004-13.38-11.68994-25.12-19.96973-35.21997-8.28027-10.08997-17.37012-19.68005-27.27002-28.76001l-49.43018-45.77991c-9.58008-8.76001-15.98975-16.51001-19.22998-23.24011-3.25-6.72998-4.86963-13-4.86963-18.78992s1.57959-10.52002,4.75-14.20007c3.15967-3.68005,8.1499-5.5199,14.96973-5.5199,5.68018,0,10.18018,1.56982,13.50977,4.69995,3.33008,3.12988,4.99023,7.51001,4.99023,13.1499v28.40015h87.16992c0-41.16016-8.23975-71.84009-24.70996-92.03003-16.47998-20.19006-44.35986-30.29004-83.64014-30.29004-20.35986,0-37.66992,3.70996-51.92969,11.12,4.75,7.97998,7.70996,17.09998,8.3999,26.77991,1.33984,18.84009-6.06006,36.31006-18.75,48.43005,6.33008,4.49011,12.35986,9.84998,18.02979,16.08997,5,5.5,9.74023,11.71997,14.08008,18.46997,4.28027,6.63013,7.97998,13.52002,11,20.46008,11.34033,26.02002,13.77002,54.20007,7.22021,83.75-.78027,3.52002-1.68018,7.06995-2.72021,10.66003,10,9.25,17.93994,17.40991,23.80029,24.5,6.40967,7.75,10.91992,15.88989,13.51953,24.41992,2.59033,8.53003,3.89014,19.14014,3.89014,31.81006,0,10.02002-1.5,17.21997-4.5,21.59998-3.00977,4.39001-8.3999,6.57996-16.18994,6.57996-7.46973,0-12.70996-2.69995-15.70996-8.09985-3.00977-5.40015-4.5-12.87012-4.5-22.42017v-51.65991h-10.1499c-5.04004,11.40991-11.31006,23.25-18.87988,35.69995-13.99023,23.05005-30.53027,44.32007-47.37012,63.70996,4.23975,12.30005,10.10986,22.52002,17.6001,30.66016,17.27979,18.78992,45.48975,28.17993,84.59961,28.17993,36.8501,0,62.7002-11,77.55029-32.98999,14.85986-21.98999,22.27979-52.39001,22.27979-91.20996,0-19.26001-2.50977-35.57007-7.54004-48.96008Z"/>
  <circle cx="79.69373" cy="113.59688" r="41.36417" transform="translate(-49.36442 164.58057) rotate(-76.50469)"/>
  <path d="M285.51208,138.36525c22.78613-1.63379,39.93359-21.43042,38.2998-44.21667s-21.43018-39.93372-44.2168-38.29993c-22.78613,1.63391-39.93359,21.43042-38.2998,44.2168,1.63379,22.78625,21.43066,39.93372,44.2168,38.2998Z"/>
  <g>
    <path d="M326.59607,345.14088c-25.96973,42.78003-60.33008,78.53003-94.1001,113.11011-3.92969,4.02002-7.8501,8.04004-11.75,12.04004-1.96973,2.02991-3.93994,4.04993-5.8999,6.06995-.3999-2.98999-.83008-5.98999-1.25977-8.98999-.76025-5.42004-1.55029-10.82996-2.37988-16.26001-1.27051-8.34998-2.59033-16.69006-3.92041-25.04004-3.16992-19.83997-4.86963-39.75-7.54004-59.63-2.07959-15.47998-6.81982-32.71997-20.32959-42.16992-5.72021-4-12.34033-5.73999-18.73047-8.33008-7.5498-3.06006-14.41992-7.52002-19.5498-13.95996s-9.58984-15.40002-7.5498-23.83008c.08008-.30994.15967-.60986.23975-.8999.09033-.32007.18994-.63.29004-.93994.1499-.45007.31982-.87012.49023-1.28003.25-.59009.52979-1.14014.82959-1.65015.20996-.34985.42041-.67993.65039-.98999.10986-.1499.21973-.29993.33984-.44995.10986-.12988.21973-.26001.31982-.37988.11035-.12012.22021-.24011.34033-.36011.12988-.13.25977-.26001.38965-.38.13037-.12.27002-.23999.40039-.35999.27979-.21997.55957-.42993.84961-.63.15039-.09998.30029-.19006.4502-.27991.1499-.09009.31006-.17017.45996-.25.16016-.08008.32031-.16016.47998-.2301.16016-.07996.31982-.15002.49023-.20996.5-.19006,1.00977-.33997,1.5498-.46008.18018-.03992.35986-.07996.55029-.10986.17969-.03003.36963-.06006.55957-.08008.18018-.03003.37012-.05005.56006-.06006.39014-.02991.78027-.04993,1.18994-.04993.36035,0,.72021.01001,1.09033.03992.31006.02002.61963.05005.93994.08008.25977.03003.52002.07007.77979.10999.29004.04993.59033.09998.88037.16003.2998.06006.59961.12.90967.18994,14.66016,3.46997,28.52002,9.93005,43.27979,13.28003,1.36035.31006,2.74023.6001,4.12012.87,1.8501.35999,3.72021.69006,5.6001.96008.52979.07996,1.06006.1499,1.59033.21997,1.05957.13989,2.11963.26001,3.17969.35999.53027.05994,1.07031.09998,1.6001.14001.52979.05005,1.06982.08997,1.6001.10999,3.31982.20996,6.6499.21997,9.93994-.03003,2.27002-.16003,4.52002-.45007,6.75-.88.56006-.09998,1.10986-.21997,1.66992-.33997l.23975-.05994c.36035-.08008.73047-.17017,1.09033-.26001,2.18994-.55005,4.35986-1.23999,6.47998-2.11011,13.06006-5.31995,24.38965-17.04004,28.33008-30.71997.84961-2.94995,1.18994-5.85999,1.08008-8.64001-.06006-1.28992-.20996-2.54993-.4502-3.77991-.32031-1.63013-.81006-3.2301-1.4502-4.7301-.31982-.75-.66992-1.48999-1.06982-2.20996-.2002-.35999-.41016-.72009-.62012-1.06995-3.6499-5.93005-9.86963-10.34009-17.68018-12.01001-1.90967-.41003-3.75977-.6001-5.5498-.6001-.38965,0-.77979.01001-1.16016.03003-.33984.01001-.67969.03003-1.00977.06006-.46973.04004-.9502.08997-1.41992.15991-.2998.04004-.61035.09009-.91992.14001-1.22021.21008-2.41016.5-3.59033.85999-.16992.05005-.3501.11011-.52002.16003-.36963.12-.73975.25-1.10986.38-.43994.15991-.87988.32007-1.31982.5-.7002.28003-1.39014.58008-2.08984.90002-.81055.38-1.61035.7699-2.41016,1.19006-.56006.29993-1.12012.59985-1.66992.90991-1.73047.98999-3.4502,2.04004-5.16016,3.13-4.33984,2.76001-8.62988,5.71008-13.12988,8.01001-1.09033-4.69006-1.90039-9.4801-2.47998-14.32996-.27002-2.40015-.49023-4.82007-.66016-7.23999-.56006-8.16016-.52979-16.40015-.12012-24.43005,1.75-2.33997,3.56006-4.58997,5.41016-6.76001l1.3999-1.60999c.93994-1.07007,1.87988-2.1001,2.83008-3.12.47998-.5.95996-1.01001,1.43994-1.5,1.02002-1.05994,2.06006-2.08997,3.1001-3.08997.37988-.36011.77002-.71997,1.1499-1.08008.18994-.19995.3999-.38989.6001-.56006.8501-.77991,1.7002-1.54993,2.56006-2.29993,1.52002-1.31995,3.0498-2.57996,4.6001-3.78992.51953-.41016,1.04004-.81006,1.55957-1.19006.52002-.40002,1.04004-.77002,1.56006-1.16003,1.57031-1.13989,3.17041-2.22998,4.78027-3.26001,1.06982-.67993,2.14014-1.34998,3.22998-1.96997.54004-.33008,1.08008-.63,1.62012-.92993.52979-.29004,1.0498-.58008,1.57959-.86011.57031-.30994,1.14014-.60999,1.7002-.88989,2.75-1.40015,5.52979-2.63013,8.33008-3.68005,4.18994-1.58997,8.43018-2.79993,12.68994-3.62,1.06006-.19995,2.12988-.38,3.2002-.53003h.00977c.5-.08008,1-.14001,1.5-.20996.1001-.01001.20996-.02002.31006-.03003.45996-.05005.93018-.09998,1.39014-.15002,1.06982-.09998,2.1499-.18005,3.21973-.22998.53027-.02991,1.07031-.04993,1.6001-.05994s1.06982-.02002,1.6001-.02002c5.54004,0,11.06982.69995,16.54004,2.12988,1.37012.36011,2.72998.77002,4.08984,1.22009.53027.18005,1.06006.35999,1.58008.54993.41992.15015.83008.31006,1.23975.46997.16016.05005.32031.11011.47021.18018.3999.1499.7998.30994,1.2002.47998.08984.02991.16992.06995.25977.10986.70996.29004,1.41992.6001,2.12988.93005.3501.16003.70996.31995,1.06006.5.10986.04993.22998.10999.3501.17004.56006.26001,1.12012.54004,1.66992.82996.06006.03003.12988.06995.18994.09998.64014.33008,1.28027.68005,1.91016,1.03003.02979.01001.0498.03003.08008.04004.54004.31006,1.07959.62,1.61963.93994.18018.11011.36035.20996.54004.32007.66992.40991,1.34033.81995,2,1.25,1.72021,1.09998,3.41992,2.30005,5.1001,3.58997.18994.15002.37012.28992.54004.43005.43018.32996.8501.65991,1.27979,1l1.3501,1.10986c.49023.42017.97021.83008,1.4502,1.25.41992.38013.83984.75,1.25,1.13013.44971.3999.8999.80994,1.33984,1.23999.43994.41992.88037.84998,1.32031,1.28003.43994.42993.87988.86987,1.31982,1.31995.41992.43005.83008.85999,1.25,1.30994.4502.46997.91016.95996,1.3501,1.45007,4.23975,4.67004,8.33008,10,12.20996,16.0199,3.81982,5.94006,6.98975,11.88013,9.58008,17.82007,21.22998,48.71997,2.75977,97.14001-23.22021,139.92993Z"/>
    <path class="cls-1" d="M135.43591,273.38087c-.2998.51001-.57959,1.06006-.82959,1.65015.25977-.59009.52979-1.14014.82959-1.65015Z"/>
  </g>
  <path d="M246.18591,242.45094c.02051.66003-.08984,1.43994-.31982,2.25-2.14014,7.41003-8.83008,14.53003-16.6499,17.70996-3.8501,1.57007-8.5,2.36011-13.81006,2.36011s-11.22021-.75-18.08984-2.31006c-6.45996-1.46997-13.05029-3.75-20.03027-6.15991-7.32959-2.53003-14.90967-5.15015-23.06982-7.08008-3.12988-.73999-6.22998-1.12-9.2002-1.12-15.25,0-27.08008,9.71008-30.87012,25.33997-3.19971,13.23999.83008,27.80005,11.3501,41.01001,6.87012,8.62,16.18018,15.37,27.68018,20.03003,2,.81006,3.8999,1.5,5.72998,2.17993,3.75,1.37012,6.97998,2.55005,9.05029,4,6.0498,4.22998,9.96973,13.54004,11.95996,28.44006,1.04004,7.73999,1.95996,15.71008,2.84961,23.41003,1.37012,11.96997,2.79004,24.34998,4.76025,36.70996,1.47998,9.18994,2.75977,17.34009,3.90967,24.90991.42041,2.76001.8501,5.6001,1.31006,8.79004-20.62988-15.33997-41.02002-31.26001-60.45996-48.60986-52.60986-46.95007-127.32959-124.47009-85.20996-209.11011,31.04004-62.38989,89.66016-60.51001,133.56982-19.38-.01953.25-.03955.51001-.0498.77002-.47998,9.46008-.42969,18.47998.14014,26.81995.19971,2.78003.44971,5.52002.75977,8.16003v.05005c.68018,5.75,1.6499,11.31995,2.87012,16.54993,1.3999,5.98999,5.47998,11,11.06982,13.59009,2.67041,1.22998,5.54004,1.84998,8.40039,1.84998,3.12988,0,6.25977-.7301,9.12012-2.20007,4.42969-2.27002,8.50977-4.90991,12.10986-7.23999.87988-.56995,1.75977-1.13989,2.6499-1.69995,1.58008-1.01001,2.97998-1.85999,4.25977-2.59009,3.28027-1.83984,5.62012-2.69995,7.37012-2.69995.43994,0,.87988.05005,1.37012.16003,2.21973.47009,3.92969,1.51001,4.81006,2.90002.0498.09998.10986.19995.16992.30005.04004.07996.08008.16992.12012.25.00977.02991.02002.05994.04004.09985.1001.2301.17969.5.23975.77002.04004.23999.07031.51001.08984.79004Z"/>
</svg>