<?xml version="1.0" encoding="UTF-8"?>
<svg id="Capa_2" data-name="Capa 2" xmlns="http://www.w3.org/2000/svg" viewBox="0 0 532.2219 532.22192">
  <path d="M286.45591,476.39183V55.65113h203.71585v81.27992h-100.12176v81.99707h96.06915v79.12651h-96.06915v96.34013h106.77626v81.99707h-210.37035Z"/>
  <g>
    <path d="M99.60944,58.13995c32.6361-5.76543,63.47392-1.24073,93.63818,10.74512,24.00911,9.54049,46.29279,23.10453,67.12591,39.71665,2.56515,2.04577,4.81101,6.95831,4.82631,10.5596.29887,56.06014.20484,112.12282.20557,168.18466,0,41.22991.00389,82.45983.01166,123.68977v11.17829c-50.78306-39.40858-104.33246-61.02138-165.80763-50.31234V58.13995Z"/>
    <path d="M259.98679,476.54153c-8.55775-.23169-9.46236-1.73938-10.7752-17.15862-2.61471-.11667-5.23014-.46338-7.95347-.46338H48.88468c-11.9794,0-13.38553-1.51102-13.48904-15.18757,0-44.05583.10351-87.99583,0-131.93496,0-55.06875.0345-110.13749.10351-165.20624,0-13.10066,2.31074-15.07171,14.89443-13.44903v307.3432h215.02529v35.9069s-2.81663.26554-5.43208.1497Z"/>
    <path d="M58.82305,114.90693h24.84811v278.31542c29.17947-7.71131,57.44048-7.94971,85.62932-.54565,28.05763,7.36964,53.90439,20.65919,80.05657,39.16848H58.82305V114.90693Z"/>
  </g>
</svg>