<?xml version="1.0" encoding="UTF-8"?>
<svg id="Capa_2" data-name="Capa 2" xmlns="http://www.w3.org/2000/svg" viewBox="0 0 532.2219 532.22192">
  <defs>
    <style>
      .cls-1 {
        fill: #606060;
      }
    </style>
  </defs>
  <path d="M460.51244,359.18097l-19.37012-216.78003-7.75-86.66003h-134.47021l-.17969,1.94006-2.28027,25.05994-15.31006,168.25c1.27002.44006,2.91016,1.04004,5.06006,1.82996,1.3501.5,13.31006,4.93005,16.68018,6.64014,13.08008,6.65991,20.5,18.09985,20.89014,32.18994.25977,9.44995-2.7002,18.26001-5.08008,25.34998-.81006,2.39001-1.57031,4.66003-2.02002,6.39001-.1001.44995-.18018,1.87-.24023,2.90991-.21973,3.62012-.50977,8.58008-2.47998,14.44006-4.72998,14.20007-15.00977,21.97009-22.50977,27.64001-2.31006,1.73999-4.47998,3.38-5.90039,4.78003-3.11963,4.54004-13.93945,23.04004-16.22949,27.57996-.41016,1.40002-1.06006,4.65002-1.55029,7.07996-.47021,2.32007-.97998,4.90015-1.58008,7.54004l-1.97998,21.75-1.69971,18.71997-.02002.20007-1.82031,19.96997-.04004.4801h77.03027l.81006-11.12012,1.58984-21.78003,2.55029-34.98999h47.75l.46973,5.71997,2,24.07007,3.16016,38.1001h75.00977l-10.48975-117.30005ZM348.25218,341.42096l8.53027-120.95996,5.08984-72.27002,1.22998-17.51001.22998-3.21997h3.60986l1.54004,18.96997,8.16016,100.71997,7.64014,94.27002h-36.03027Z"/>
  <g>
    <path d="M297.31224,318.42096c-1.31006,5.07996-.31006,9.98999-2.31982,16-4.03027,12.08997-16.02002,17.03003-23.68018,24.68994-.33984.33008-.66016.67004-.97998,1.02002-2.49023,2.70996-18.18018,29.57007-19.56982,33.09009-1.49023,3.77991-2.6001,11.51001-4.37012,19-2.66016,11.28992-6.81006,22.02991-16.01025,17.79993-11.00977-5.04993-7.44971-14.59998-9.75-22.31995-8.04004-26.97998-5.59961-24.67004-6.11963-50.91003-.49023-24.64001-15.93994-21-22.86035-32.30005-3.8501-6.27991-1.67969-14.75989-6.61963-23.14001-7.11035-12.09998-18.8501-6.95996-12.66992-27.76001,2.56982-8.6499,12.6499-15.02002,8.41992-24.95996-2.28027-5.33997-28.16992-17.20996-34.9502-22.56006-17.08984-13.47998-22.71973-29.93994-16.25-51.30994-.21973-.26001-5.74023,2.29993-6.22998,2.89001-3.6001,4.27002-.04004,12.27002-7.47021,10.83008-2.26953-15.87012,6.77002-29.15015,11.41016-43.4801-77.43994,85.5-52.7998,224.41003,45.10986,283.46008,22.31006,13.45996,46.14014,21.85986,70.18994,25.55994l-1.82959,20.14001c-53.3999-7.48999-104.66016-35.40002-140.5-85.75C5.48216,255.25091,93.39232,68.83087,255.0725,56.39093c8.02979-.62,15.94971-.78003,23.75-.52002l-2.28027,25.06006c-3.77002,1.25-7.08984,3.08997-9.71973,5.55994-3.19043,2.99011-4.09033,7.84998-4.47021,8.12-5.51025,3.88-8.05029-11.34998-10.23975-13.85999-3.48047-3.96997-10.04004,1.18005-14.90039.16003,11.4502,16.72998-8.77002,9.90991-19.33008,11.56006-5,.77991-8.31982,3.88989-12.72998,5.6499-5.96973,2.38-14.52979-1-8,12.53003,8.28027,17.13,21.66016-10.41992,26.36035-12.62,12.43994-5.82996,27.87988,21.47998,25.13965,24.04993-7.22998,1.1001-13.81982-7.77002-20.62988-3.44995-6.15967,4.69995,4.81982,8.20996,1.22021,12.66003-14.87988,4.14001-40.6001,17.43005-44.26025,33.68005-1.02979,4.58984,2.93994,16.18994-1.56006,16.59985-3.27979.30005-20-21.15991-24.02002-18.25-.63965,11.36011-15.25977,20.38013-15.78955,30.88013-.67041,13.35986,8.87988,5.6499,12.41992,6.20996,5.36963.84998,1.5,8.58997,2.2998,11.25.8999,3,7.18994,21.68994,8.16016,22.37,4.0498,2.83997,19.38965-4.40002,26.08008-4.53003,6.75-.13,20.90967-.12,27.19971.26001,14.74023.91003,13.7002,8.65002,20.77002,13.76001,3.93994,2.84998,10.68994,2.89001,12.89014,6.05994,4.75,6.82007-3.16016,12.07007-2.49023,15.57007.47021,2.52002,4.18994,3.29004,8.52002,3.52002,4.66992.27002,10.05029-.1001,12.74023.45996.73975.16003,3.62988,1.16992,7.08008,2.44995,5.81982,2.15015,13.20996,5.03003,14.52979,5.70007,17.91016,9.12,6.95996,27.71997,3.5,41.14001Z"/>
    <path class="cls-1" d="M260.67211,476.00091l-.04004.4801.05029-.51001,1.81006-19.94006-1.82031,19.96997Z"/>
  </g>
</svg>