<?xml version="1.0" encoding="UTF-8"?>
<svg id="Capa_2" data-name="Capa 2" xmlns="http://www.w3.org/2000/svg" viewBox="0 0 532.2219 532.22192">
  <defs>
    <style>
      .cls-1 {
        fill: none;
      }
    </style>
  </defs>
  <path d="M384.52196,476.48131c-30.68636,0-55.38711-9.31156-74.10027-27.94041-18.71709-18.62503-28.07367-44.68686-28.07367-78.18453v-190.64765c0-40.0684,8.15042-70.74869,24.45912-92.03703,16.30281-21.28451,42.85208-31.93108,79.64192-31.93108,20.0804,0,37.95475,3.60213,53.61715,10.80064,15.66437,7.20138,27.99116,17.96087,36.99022,32.28325,8.99513,14.32142,13.49367,32.36364,13.49367,54.11804v71.37552h-84.34084v-61.04476c0-12.36245-1.6069-20.69788-4.81875-25.00435-3.21577-4.3036-8.19364-6.45684-14.94146-6.45684-7.87344,0-13.17543,2.78103-15.90403,8.33446-2.73449,5.55822-4.0978,12.95388-4.0978,22.18792v206.84861c0,11.42747,1.72477,19.48728,5.18217,24.18229,3.45347,4.69597,8.39205,7.04444,14.81966,7.04444,7.2291,0,12.3268-2.89491,15.30291-8.6876,2.97022-5.78886,4.45729-13.30222,4.45729-22.53913v-74.42833h85.30538v78.18453c0,36.31507-9.39783,62.65156-28.1935,79.00659-18.79763,16.35695-45.06403,24.53542-78.79918,24.53542Z"/>
  <g>
    <path class="cls-1" d="M262.34808,347.86046c-1.94385,1.9248-3.46094,3.46606-4.43018,4.52148-7.30371,1.2937-78.60938-76.62817-90.37402-87.43286-1.29395-7.30347,76.62793-78.60913,87.43262-90.37427,1.11377-.19727,3.72266,1.45581,7.37646,4.42505.03076-13.4043.93652-26.00317,2.70557-37.66431l-7.14062-7.30469-135.2417,125.46802,131.74365,133.86328,8.50635-8.30811c-.38232-4.76855-.57812-9.6665-.57812-14.69775v-22.49585Z"/>
    <path class="cls-1" d="M251.17962,223.36608c-4.63965,1.21997-39.82031,37.11133-39.0376,41.58301,8.2832,7.51978,33.47119,39.21606,42.27783,39.21631,1.7002-.5332,4.52881-2.38843,7.92822-5.02954v-71.87378c-4.24805-3.03052-8.13135-4.69458-11.16846-3.896Z"/>
    <path d="M254.41986,393.36217l-131.74365-133.86328,135.2417-125.46802,7.14062,7.30469c1.05371-6.94873,2.41162-13.56763,4.07422-19.82422,2.77539-10.44531,6.44922-20.07666,10.96582-28.82104-.50391.27417-.95801.42847-1.35205.42847-2.85205.00073-15.59961-18.98901-20.82959-19.90186-8.7417-1.52612-18.52686,21.21021-27.26611,19.68213-11.20801-1.95947-28.58691-41.15747-48.3208-35.62329-33.07178,9.27466,22.66748,45.802,25.03564,54.98047,2.33203,9.03857-11.33252,23.58716-21.05273,21.05249-3.87988-1.01172-52.96436-59.0354-55.85107-21.78516-1.87305,24.17139,60.00195,38.51465,22.76953,62.98877-22.79248,14.98193-49.11865-56.69043-65.11719-24.52393-12.07715,24.28296,43.07764,40.64941,30.72021,58.86743-26.19824,38.62329-42.07764-33.68262-69.07373-20.5686-30.10156,14.62256,24.21191,43.86646,27.69434,53.64185,4.07275,11.43188-4.8252,8.01587-7.45508,12.18726-12.68652,20.12354,10.40088,23.81006,11.84424,32.19604,1.72314,10.01245-47.29053,43.48071-35.70312,61.76367,11.63477,18.35767,48.27881-33.6626,58.26611-39.92603l22.22607,22.22607c-9.09619,11.79639-50.08789,40.67285-36.75684,57.0293,17.94092,22.01245,45.17578-36.76904,58.57275-34.4353,3.25.56616,19.33105,16.74121,18.50977,21.44751-1.33838,7.6709-53.8877,42.44629-32.38379,57.57178,16.51172,11.61401,42.4624-30.46411,54.97461-38.69702l22.22607,22.22607c-7.99805,9.95801-52.84375,42.48975-32.6333,57.04858,18.08838,13.03076,40.40576-32.49805,51.50293-34.45776,8.16309-1.44141,13.92676,16.0791,23.77539,16.06787,7.76514-.00879,17.16602-14.07178,22.00049-18.80151-7.46436-14.61963-11.97998-31.43018-13.49512-50.32153l-8.50635,8.30811Z"/>
    <path d="M254.41986,304.16539c-8.80664-.00024-33.99463-31.69653-42.27783-39.21631-.78271-4.47168,34.39795-40.36304,39.0376-41.58301,3.03711-.79858,6.92041.86548,11.16846,3.896v-47.55347c0-.23779.00439-.47168.00488-.70874-3.65381-2.96924-6.2627-4.62231-7.37646-4.42505-10.80469,11.76514-88.72656,83.0708-87.43262,90.37427,11.76465,10.80469,83.07031,88.72656,90.37402,87.43286.96924-1.05542,2.48633-2.59668,4.43018-4.52148v-48.72461c-3.39941,2.64111-6.22803,4.49634-7.92822,5.02954Z"/>
  </g>
</svg>