<?xml version="1.0" encoding="UTF-8"?>
<svg id="Capa_2" data-name="Capa 2" xmlns="http://www.w3.org/2000/svg" viewBox="0 0 532.2219 532.22192">
  <path d="M277.6301,476.00218V55.26149h125.70773c26.31087,0,47.1718,5.18086,62.5828,15.53867,15.40879,10.36171,26.4453,25.10138,33.11613,44.22583,6.66422,19.12444,10.00073,41.91748,10.00073,68.37035,0,25.50088-2.79659,47.69175-8.37875,66.57746-5.58877,18.88572-15.54543,33.50943-29.87217,43.86725-14.32894,10.36171-34.64995,15.53867-60.96082,15.53867h-38.65862v166.62246h-93.53702ZM371.16712,233.83782h5.40586c17.66105,0,28.47498-4.38185,32.44177-13.14848,3.96018-8.76273,5.94578-21.67249,5.94578-38.72732,0-15.93428-1.93712-28.24575-5.81135-36.93443-3.87864-8.68381-13.02211-13.02863-27.4392-13.02863h-10.54286v101.83886Z"/>
  <path d="M249.45444,66.6804l-.5498,22.07007c-5.56006,2.92993-10.5,7.25-12.9502,13.12l-140.1001.16003c-11.21973.52002-14.75977,16.15991-6.1499,22.35999.45996.32996,3.47021,2.0199,3.75,2.06995,3.10986.64001,8.04004-.45996,11.38037,0l-63.86035,183.13h-17.79004c16.65039,48.77002,71.54004,74.40002,120.28027,57,17.60986-6.27991,33.70996-18.39001,44.66016-33.47998,4.96973-6.84998,9.86963-15.32996,11.76953-23.52002-4.37988.04004-8.76953-.04993-13.1499-.02991-1.40967.01001-4.02979,1.27991-4.93994-.41016l-63.56006-182.68994h116.93018c2.54004,3.94995,5.20996,7.38,8.75977,10.48999,1.16016,1.01001,3.59033,1.72998,3.81006,3.22998,0,1.40015-.6001,2.65015-.64014,4.05005-2.7998,90.91003-4.7998,181.60999-7.57959,272.3501-.28027,9.02991.00977,18.10986-.56006,27.13989-19.45996,2.12-42.24023,9.41003-57.16016,22.43994-3.20996,2.80005-7.27979,6.84009-8.74023,10.80005h88.06055V55.9304c-5.3501-.01001-10.7002,3.59009-11.67041,10.75ZM172.6644,307.36046l.3999,2.80994c-.81982.34009-1.75-.57996-2.03955-.57996H50.0145l61.24023-175.53992c1.44971,1.26001,2.20996,4.17993,2.91992,6.10986,20.3999,55.38013,38.00977,111.84009,58.48975,167.20007Z"/>
</svg>