<?xml version="1.0" encoding="UTF-8"?>
<svg id="Capa_2" data-name="Capa 2" xmlns="http://www.w3.org/2000/svg" viewBox="0 0 532.2219 532.22192">
  <defs>
    <style>
      .cls-1 {
        fill: none;
      }

      .cls-2 {
        fill: #e30613;
      }
    </style>
  </defs>
  <path class="cls-1" d="M355.09576,131.2883h-9.47998v272.76001h14.81982c15.70996,0,23.56006-7.48999,23.56006-22.46997v-217.06c0-14.03003-1.8999-23.07001-5.70996-27.14001-3.7998-4.06-11.52979-6.09003-23.18994-6.09003Z"/>
  <path d="M446.67584,82.87833c-15.55029-16.81-38.70996-25.22003-69.47998-25.22003h-109.24023c.45996.43005.91016.86005,1.36035,1.30005,11.15967,10.87,19.36963,24.5,23.77979,39.48999,7.37988,25.29999,4.35986,49.56-8.70996,70.14996-6.02979,9.5-13.99023,17.97003-23.81006,25.35004,6.43018,4.62,12.03027,9.83997,16.75977,15.64996,13.82031,16.97003,20.15039,38.54004,18.82031,64.10004-1.06006,20.33002-8.52002,37.87-22.16992,52.14001-3.76025,3.92999-7.94043,7.57996-12.57031,10.94995,8.76025,6.60004,15.97998,14.64001,21.75,24.19,14.56006,23.98004,17.53027,50.61005,8.58008,76.99005l-.02002.07996-.02979.09003c-5.62012,16.13-15.51025,29.90997-28.12988,40.26001h110.71973c35.45996,0,60.28027-10.84003,74.4502-32.51001,14.16992-21.67999,21.25977-52.44,21.25977-92.28003v-196.97998c0-32.34998-7.77002-56.94-23.31982-73.75ZM383.99566,381.57834c0,14.97998-7.8501,22.46997-23.56006,22.46997h-14.81982V131.2883h9.47998c11.66016,0,19.39014,2.03003,23.18994,6.09003,3.81006,4.07001,5.70996,13.10999,5.70996,27.14001v217.06Z"/>
  <path d="M264.72564,447.71835c.52002-.76001,1.01025-1.52002,1.49023-2.30005,2.6499-4.29999,4.86963-8.94,6.58984-13.87,7.1001-20.94,4.77979-41.22998-6.72998-60.19-1.75977-2.90997-3.66992-5.59998-5.71973-8.09998-.24023-.28998-.47021-.57001-.73047-.85004v-.00995c-1-1.19-2.0498-2.33002-3.12988-3.42004-1.12012-1.13995-2.27979-2.22998-3.46973-3.26996-1.19043-1.05005-2.43018-2.05005-3.69043-3-2.54004-1.92004-5.22949-3.66003-8.05957-5.23999-1.13037-.63-2.29004-1.24005-3.47021-1.83002-1.18018-.58002-2.39014-1.14001-3.62012-1.67999-3.87988-1.70001-8-3.16003-12.35986-4.42004-2.52002-.72998-5.12988-1.38995-7.81006-1.98999,2.5-.77997,4.93018-1.59998,7.27979-2.45001,1.55029-.56,3.07031-1.13995,4.56055-1.73999,3.43945-1.37,6.70996-2.82001,9.78955-4.35999,9.77002-4.85999,17.76025-10.56,23.97998-17.09003,10.27002-10.77997,15.75-23.83997,16.55029-39.25,1.18018-22.52997-4.70996-39.94995-16.55029-52.98999-.11963-.13-.23975-.26001-.35986-.38995-.27979-.31-.56982-.61005-.85986-.91003-.76025-.79999-1.56006-1.58997-2.37988-2.34998-.27002-.26001-.54004-.51001-.82031-.76001-.25-.22998-.5-.46002-.75977-.67999-.36035-.32001-.72998-.64001-1.1001-.95001-.33008-.28003-.66992-.56-1.02002-.84003-1.04004-.84998-2.10986-1.66998-3.21973-2.46997-.34033-.25-.69043-.5-1.04004-.73999-1.29004-.91003-2.62012-1.78003-3.99023-2.62-.37988-.23004-.77002-.46002-1.16016-.69-.95996-.57001-1.93994-1.13-2.93994-1.67004-.46973-.25995-.94971-.50995-1.43994-.75995-1.10986-.58002-2.24023-1.14001-3.3999-1.68005-.85986-.40997-1.72998-.79999-2.60986-1.17999-1.14014-.5-2.29004-.97998-3.47021-1.44995-.8999-.36005-1.81006-.71002-2.73975-1.05005-.14014-.04999-.29004-.09998-.44043-.15997-.51953-.17999-1.02979-.37-1.55957-.54999l-.01025-.01001c-.51025-.17999-1.02002-.35004-1.52979-.52002-.27002-.08997-.55029-.17999-.82031-.26996-.8999-.29004-1.7998-.58002-2.71973-.86005-1.12988-.33997-2.28027-.67999-3.4502-1,1.18018-.42999,2.33984-.87,3.49023-1.32001.77979-.29999,1.5498-.60999,2.30957-.91998.36035-.14996.72021-.28998,1.08008-.45001.16992-.07001.33008-.13.49023-.19995v-.01001c.38965-.16003.77979-.32001,1.16992-.48999.5498-.24005,1.1001-.48004,1.64014-.72003s1.07959-.48999,1.60986-.72998c.53027-.25,1.06006-.5,1.58008-.75,1.35986-.64001,2.68994-1.29999,3.98975-1.98004.53027-.27997,1.06006-.56,1.58008-.83997.66992-.35004,1.33008-.72003,1.97998-1.09003.49023-.26996.95996-.53998,1.43994-.82001,1.8999-1.09998,3.72998-2.23999,5.49023-3.39996.77002-.51001,1.52979-1.03003,2.27002-1.54999,3.08984-2.17004,5.9502-4.43005,8.58984-6.80005.36035-.31995.72021-.64996,1.07031-.97998.35986-.33002.70996-.65997,1.05957-1,.34033-.33002.69043-.66998,1.02002-1,.68018-.67999,1.34033-1.35999,1.97998-2.04999,16.29004-17.47003,21.40039-39.5,14.27002-63.96002-1.08984-3.70996-2.46973-7.28998-4.11963-10.71997-.49023-1.02002-1.01025-2.04004-1.55029-3.04004-.54004-.98999-1.1001-1.97998-1.68994-2.94-.77979-1.29999-1.6001-2.56-2.45996-3.78998-.85986-1.23999-1.75-2.44-2.68994-3.62-.56982-.71002-1.1499-1.41998-1.76025-2.10999v-.01001c-1.35986-1.58002-2.77979-3.09003-4.26953-4.53998-8.57031-8.35004-19.27051-14.54004-31.23047-17.72003-5.83984-1.57001-11.83984-2.35999-17.83984-2.35999-.6001,0-1.2002.01001-1.7998.02002-1.20996.03998-2.41016.09998-3.61035.18994-.59961.05005-1.19971.11005-1.7998.17004-1.79004.19-3.58984.45001-5.37012.77997-.58984.12-1.18994.23004-1.77979.36005-7.54004,1.62-14.72998,4.54999-21.27002,8.44995-.82031.48999-1.62988.98999-2.43018,1.51001-.79004.52002-1.58008,1.04999-2.3501,1.59003-1.15967.82001-2.2998,1.66998-3.40967,2.54999-.74023.58002-1.47021,1.17999-2.18018,1.78998-1.42969,1.22003-2.81006,2.48999-4.12988,3.79999-8.76025,8.68005-15.08008,19.24005-17.64014,30.13-1.31006,5.54004-1.62988,11.16003-.81006,16.66003,4.26025.52002,8.75,1.04999,13.72021,1.64996.83984-4.72998,1.15967-8.25995,2.08984-11.58997.3999-1.42999.83008-2.83002,1.30029-4.20001,6.38965-18.83002,19.35986-31.33997,39.3999-35.94,4.3501-1.01001,8.7998-1.54999,13.27002-1.60999,2.95996-.01001,5.84961.21002,8.67969.67999.16016.03003.32031.06.47998.09003.21045.03998.41016.06995.62012.10999.08008.01001.16992.02997.25.03998l.01025.01001c.25977.04999.50977.09998.76953.15997.83008.17004,1.65039.37006,2.47021.59003.47021.12.91992.26001,1.37012.39001.02002.01001.02979.01001.0498.01996.20996.06.43994.13.64014.19h.00977c.15039.05005.30029.10004.44043.15002.29004.09003.56982.19.85986.28998h.00977c.46045.16003.92041.33002,1.37012.51001.16992.06.33008.12.5.19.06982.03003.12988.04999.18994.08002.03027.01001.05029.02002.08008.02997.27002.11005.53027.22003.7998.33002h.01025c.19971.09003.39014.16998.58984.26001.09033.03998.18018.08002.27002.12h.01025c.3999.17999.79004.35999,1.16992.54999.02979.02002.06006.03003.08984.04004.7002.33997,1.39014.69995,2.08008,1.07996.12012.06.23975.13.37012.19.7998.46002,1.60986.92999,2.3999,1.42999h.00977v.01001c.07031.04004.14014.09003.20996.13.07031.04999.13037.09003.2002.14001.11035.07001.22021.14001.33984.21002.03027.01996.07031.04999.11035.06995.02979.03003.06982.05005.10986.08002.06982.04004.14014.09003.20996.14001h.01025c.77979.52997,1.55957,1.08002,2.31982,1.65002.1001.07996.19971.14996.2998.22998.06006.04999.13037.09998.18994.15997.11035.07001.22021.15002.32031.23999.10986.08002.21973.17004.33008.25.08008.06.15967.13.23975.20001.29004.23004.59033.48004.88037.72003h.00977v.01001c.37012.31.74023.62994,1.10986.94995,2.20996,1.95001,4.34033,4.13,6.37012,6.53003,6.66016,7.85999,10.72021,16.96997,12.27979,26.32001v17.76996c-1.79004,10.77002-6.86963,20.99005-15.06982,29.07001-.7998.79004-1.64014,1.57001-2.51025,2.33002-.28955.25-.57959.5-.87988.75-.87012.73999-1.77002,1.45001-2.67969,2.13-.6001.46002-1.22021.90002-1.84033,1.32001-.93994.64001-1.88965,1.25-2.85986,1.83002-.37012.21997-.74023.44-1.12012.64996-.66992.38-1.33984.73999-2.02002,1.09003-1.02002.51996-2.0498,1.01001-3.1001,1.46997-.69971.31-1.40967.60004-2.11963.87-1.06982.41003-2.1499.79004-3.24023,1.14001-.79004.25-1.57959.47998-2.36963.69-.68018.19-1.37012.35999-2.06006.51001-.61035.14001-1.22998.27002-1.8501.38l-.01025.01001c-.12988.01996-.25.04999-.38965.06995-.76025.14001-1.51025.26001-2.27002.37006-.76025.09998-1.53027.19995-2.29004.26996-1.15039.10999-2.30029.19-3.45996.23004-1.32031.03998-2.64014.02997-3.9502-.04004h-.00977c-2.32031-.09998-4.62012-.37-6.90039-.78998-.15967-.03003-.30957-.06-.45996-.09003-.08008-.01001-.1499-.01996-.21973-.03998-.08008-.02002-.16016-.03998-.22998-.04999-.22021-.04004-.43994-.09003-.66016-.14001-.18018-.03003-.3501-.07001-.52979-.10999-.07031-.02002-.15039-.04004-.23047-.06h-.01953c-.16992-.04004-.3501-.08002-.53027-.13h-.00977c-.78027-.17999-1.55029-.39001-2.33008-.62-.12988-.04004-.26025-.08002-.39014-.12-.12988-.03003-.25977-.07001-.39014-.12l-.01953-.01001c-1.62012-.48999-3.22021-1.08002-4.80029-1.73999h-.01025v-.01001c-.08984-.04004-.17969-.07001-.26953-.11005-.09033-.03998-.18018-.07996-.26025-.12-.73975-.31-1.47998-.64996-2.19971-1.00995-1.36035-.66003-2.7002-1.39001-4.02051-2.18005-.86963-.51996-1.72949-1.06995-2.57959-1.64996-4.7002-3.17999-9.05029-7.17999-12.89014-11.98999-.93994-1.17004-1.8999-2.26001-2.8999-3.25-.6001-.60004-1.20996-1.16003-1.83008-1.70001-.20996-.16998-.41992-.35004-.62988-.52002-.63037-.51001-1.28027-.97998-1.9502-1.42999-.22021-.15002-.44971-.28998-.68018-.42999-.44971-.28003-.90967-.54999-1.37988-.79999-.34961-.19-.70996-.37-1.06982-.54004-.12012-.06-.24023-.12-.35986-.16998-.01025,0-.01025-.01001-.01025-.01001-.40967-.19-.83008-.35999-1.25977-.52997-.05029-.01001-.09033-.03003-.14014-.04999-.00977-.01001-.03027-.02002-.04004-.02002-.37988-.15002-.77002-.29004-1.16992-.41003-.08008-.02997-.16016-.06-.22998-.07996-.09033-.03003-.18018-.06-.27002-.08002-.39014-.13-.79004-.23999-1.18994-.34003-.07031-.01996-.14014-.03998-.20996-.04999-.37012-.08997-.74023-.17999-1.12012-.25-.16016-.03998-.33008-.07001-.5-.09998-.1499-.03003-.31006-.04999-.45996-.08002-.16992-.02997-.34033-.07001-.52002-.08997-.16992-.03003-.3501-.06006-.53027-.08002-.21973-.04004-.43994-.06-.66992-.08002-.20996-.02997-.41992-.06-.63965-.07001-.20996-.02997-.43018-.04999-.65039-.06-.06982-.01001-.1499-.02002-.21973-.02002-.16016-.01996-.33008-.02997-.49023-.02997-.02979-.01001-.06982-.02002-.09961-.01001-.33008-.02002-.67041-.02997-1.02051-.04999-.47949-.02002-.97949-.03003-1.47949-.03003-.22021,0-.44043.01001-.66016.01001,2.88965,7.77002,6.46973,14.5,10.66992,20.27002l.00977.01001c2.3501,3.21997,4.90039,6.14996,7.63037,8.79999,1.27979,1.23999,2.58984,2.40997,3.93994,3.52002,2.69971,2.21997,5.56006,4.20996,8.56982,5.98999,0,0,0-.01001.01025,0,.37988.21997.75977.44,1.13965.65997.04004.03003.08008.04999.12012.06v.01001c.72998.40002,1.45996.78998,2.2002,1.17999.77979.40002,1.56982.79004,2.37012,1.17004.7998.37994,1.60986.73999,2.42969,1.08997.16016.08002.33984.14001.50977.21002.05029.01996.09033.03998.13037.07001.6001.23999,1.21973.48999,1.83984.72998.83008.33002,1.68018.64001,2.52979.94.8501.28998,1.72021.58002,2.59033.85999,6.52979,2.04999,13.5498,3.41998,21,4.19-.12988,1.72003-.26025,3.34003-.37988,4.89001v.02002c-.11035,1.33997-.21045,2.62994-.32031,3.90997-.16992,2.20001-.3501,4.34998-.54004,6.62v.01001c.16016.02997.31006.06.47021.08997.45996.10004.91992.20001,1.37012.26001.95996.20001,1.90967.39001,2.83984.58002,1.3999.28998,2.77002.56,4.12988.84998.4502.10004.90039.20001,1.3501.29004.91016.20001,1.81006.39996,2.70996.60999.43994.09998.87012.21002,1.31006.31.43018.12.85986.22998,1.28027.34998,1.37988.39001,2.72949.82001,4.03955,1.30005l.04004.01996c.33008.12.68018.23999,1.01025.37.34961.13.69971.27002,1.0498.41003.33008.14001.66016.27002.99023.40997,3.34961,1.45001,6.47998,3.20001,9.37988,5.25.6499.45001,1.27979.92999,1.8999,1.42004.31006.25.62012.48999.93018.73999.60986.5,1.20996,1.01996,1.7998,1.54999.58008.52997,1.16016,1.08002,1.72998,1.64001,3.58008,3.54999,6.70996,7.67999,9.38037,12.37,3.19971,5.63,5.26953,11.62,6.26953,17.69v17.5c-1.79004,11-6.95996,21.41998-15.06982,29.57996-.58984.60004-1.19971,1.18005-1.81982,1.75-.31006.29004-.62988.58002-.9502.85004-1.58984,1.40997-3.27979,2.71997-5.06006,3.94-.21973.14996-.43018.29999-.6499.42999-.72998.5-1.45996.96997-2.2002,1.40997-.48975.30005-.97998.59003-1.47998.86005-.06982.04999-.1499.08997-.21973.12-.49023.27997-.97998.53998-1.47998.78998-.37988.20001-.76025.39001-1.15039.58002-.34961.16998-.68945.32996-1.03955.48999-.08008.03998-.16016.07001-.24023.10999-.20996.10004-.43018.19-.64014.27002-.02979.02002-.05957.02997-.08984.03998-.18994.09003-.37012.16998-.56006.25-1.00977.42999-2.02979.82001-3.06006,1.17999-5.71973,2-11.66992,2.98004-17.58984,2.98004h-.00977c-3.94043,0-7.86035-.44-11.7002-1.29004-.22021-.04999-.43994-.09998-.66016-.15997-.25977-.04999-.52002-.12-.77002-.17999l-.02979-.01001c-.47021-.12-.93018-.23999-1.3999-.37-.43018-.12-.86035-.25-1.29004-.39001-.05029-.01001-.1001-.02997-.1499-.04999-.28027-.08002-.56006-.16998-.84033-.27002-.52002-.16998-1.0498-.34998-1.56982-.53998-.41992-.15002-.83984-.31-1.26025-.48004-.27979-.10999-.5498-.21997-.82959-.33997-.34033-.14001-.68018-.28003-1.02051-.42999-.44971-.20001-.90967-.40002-1.34961-.60999l-.01025-.01001c-.44971-.21002-.89014-.42999-1.32959-.65002-1.33008-.66998-2.64014-1.39996-3.91016-2.19-.43018-.26001-.8501-.52997-1.27002-.81-.66016-.42999-1.31982-.89001-1.95996-1.35999-.99023-.71002-1.95996-1.46002-2.8999-2.25-.59033-.48999-1.18018-1-1.75-1.53998-.56006-.5-1.11035-1.02002-1.65039-1.56006-.55957-.54999-1.10986-1.12-1.62988-1.70996-.89014-.94-1.72998-1.91998-2.54004-2.94-6.41016-7.90002-13.58984-12.31-25.37988-12.63,2.7998,7.52997,6.21973,14.08002,10.22998,19.73999,5.23975,7.41003,11.47998,13.29999,18.6499,17.87,1.33984.85004,2.70996,1.66003,4.12012,2.42999,5.39014,2.92999,11.25,5.20001,17.5498,6.88.01025.01001.03027.01001.05029.01001,5.39014,1.42999,11.10986,2.41998,17.12988,3.03003-.41016,5.60999-.77002,10.50995-1.16016,16.12.30029.01996.6001.03998.8999.06.30029.02997.6001.06.90039.09998,4.79004.41998,9.33984,1.25,13.63965,2.51001,11.16992,3.26001,20.6001,9.44,28.07031,19.14001,5.60986,7.29999,9.0498,15.58997,10.42969,24.12v17.29999c-2.05957,12.88-8.71973,25.06-19.61963,33.82001-1.55029,1.23999-3.1499,2.39001-4.80029,3.42999-1.63965,1.04999-3.31982,1.98999-5.04004,2.84003-.68994.33997-1.37988.66998-2.06982.96997-.35986.15997-.70996.31-1.06006.45001-.7002.29999-1.3999.57001-2.10986.83002-.70996.26996-1.41992.50995-2.14014.73999-1.06982.34998-2.16016.65997-3.25.92999-.71973.19-1.4502.34998-2.17969.51001-1.47021.31-2.94043.54999-4.42041.72998-.73975.09003-1.47998.16998-2.20996.22998-8.08984.67004-16.27002-.48999-23.89014-3.41998-.88965-.34003-1.76953-.70001-2.63965-1.09003-.87012-.38995-1.74023-.79999-2.58984-1.23999-.8501-.44-1.7002-.89996-2.53027-1.38-.83984-.48999-1.66016-1-2.46973-1.52997-1.21045-.79999-2.40039-1.65002-3.56055-2.54999-2.70996-2.11005-5.25-4.51001-7.57959-7.19-5.13037-5.89001-8.79004-12.58002-10.97998-19.59003-1.72021-5.45996-2.54004-11.12-2.45996-16.75.04004-3.87.5-7.71997,1.37988-11.48999l.00977-.02002c2.40039-10.29999,7.91016-19.98999,16.49023-27.62,7.81982-6.89996,13.04004-14.15997,13.2002-25.89996-.36035.12-.72021.25-1.08008.38-.5.16998-.98047.34998-1.47021.52997-.83984.32001-1.66992.65002-2.48975,1-.55029.22998-1.09033.47003-1.63037.71002-1.29004.57996-2.56006,1.20001-3.7998,1.83997-.41016.22003-.81982.44-1.22998.66003-2.97021,1.63-5.77002,3.44-8.41016,5.41998l-.00977.01001c-.25.19-.49023.37-.74023.56-.35986.27997-.70996.56-1.06006.83997-.69971.56-1.39014,1.14001-2.06982,1.73004-.66992.58997-1.33008,1.19-1.97998,1.79999-.31982.31-.6499.60999-.95996.92999-4.97021,4.88-9.10986,10.46002-12.31982,16.57001-.02051.02002-.04004.04999-.05029.08002-.33008.60999-.64014,1.22998-.93994,1.85999-5.75977,11.82001-8.16016,25.48999-6.56006,39.77997.31006,2.71002.77979,5.38,1.41016,7.99005.32959,1.37.69971,2.71997,1.10986,4.04999,7.95996,25.84998,31.24023,45.87,58.91992,49.14996,9.03027,1.06,17.93018.36005,26.31006-1.87.62988-.15997,1.26025-.33997,1.87988-.51996.32031-.09003.64014-.19.95996-.29004.22998-.07001.47021-.13995.7002-.21997l.01025-.01001h.00977c.42969-.13.8501-.27002,1.27979-.41998.42041-.15002.8501-.30005,1.27002-.45001.41992-.15002.84033-.31,1.26025-.47998,3.1001-1.18005,6.1001-2.59003,8.97998-4.20001,1.04004-.58002,2.06006-1.17999,3.06006-1.81,1.68994-1.04999,3.32959-2.17004,4.91992-3.36005,1.27979-.96997,2.52979-1.96997,3.75-3.00995,1.18994-1.02002,2.3501-2.09003,3.47021-3.20001.15967-.15002.32959-.32001.48975-.47998.31982-.31006.62988-.63.93994-.96002h.00977v-.01001c.31055-.32001.62012-.65002.93018-.97998.30029-.33002.6001-.66003.8999-1h.01025v-.01001c.23975-.27002.48975-.54999.73975-.84003v-.01001c.03027-.02997.06006-.06.08008-.07996.02002-.03003.04004-.06.07031-.08002,1.16992-1.38,2.2998-2.81,3.37988-4.27997.52979-.73004,1.06006-1.48004,1.56982-2.24005v-.00995Z"/>
  <path class="cls-2" d="M223.15582,192.21835c.38965-.16003.77979-.33002,1.16992-.5-.39014.16998-.78027.32996-1.16992.48999v.01001Z"/>
  <path d="M94.97711,298.74148c22.27588-22.38287,59.05371-20.73853,79.56543,4.08435,6.64209,8.03595,13.7251,13.39069,27.50488,12.32111-6.79834-9.99872-11.66357-19.0329-18.29102-26.50336-13.40674-15.10559-31.55078-21.25775-51.38525-22.51807.4541-6.15802.79248-10.75494,1.1709-15.88031-2.36377-.53693-4.20996-1.01587-6.0791-1.37213-27.61084-5.25476-45.6748-23.17096-48.09473-47.72498-2.43359-24.69434,10.37646-46.64362,32.72266-56.06506,23.39258-9.86261,46.45264-2.83917,65.3999,18.33459,4.92627,5.5069,13.05322,8.14606,22.04346,13.48907-6.30273-30.2348-34.83838-51.95471-64.44287-52.49664-33.91748-.62097-63.62988,22.12823-70.74756,54.73499-4.31006,19.74451-1.0293,38.36737,10.36768,55.31726,11.4834,17.07513,28.14453,26.4361,49.53564,31.09943-49.771,19.10675-69.94971,50.70105-59.2207,90.22955,8.38525,30.89856,40.07861,54.87952,67.0498,50.22382.52441-4.33557,1.06836-8.82574,1.30664-10.80029-12.6875-5.83453-24.93604-9.06689-34.19727-16.18866-25.77051-19.81848-27.08398-57.29773-4.2085-80.28467Z"/>
  <path d="M154.33746,261.02701c29.19531-8.48297,50.02637-37.04907,47.64111-63.00372l-13.10791-2.31311c-7.27051,23.66583-7.56885,23.41461-26.12354,45.35889-4.08984,4.83966-5.24512,12.16058-8.40967,19.95795Z"/>
  <path d="M137.3565,263.16287l14.20801,2.28204c1.61279-19.44879,10.57178-33.71167,24.92139-45.63788,4.50781-3.74823,5.32031-11.94128,8.52686-19.82935-29.54004,8.65851-50.35693,37.34479-47.65625,63.18518Z"/>
  <path d="M163.4566,383.02817c-4.63037,4.03058-5.90527,11.91193-9.94922,20.73431,30.8042-9.76013,51.44482-38.42957,48.24902-63.77924l-14.37793-1.78967c-.96094,19.37567-10.29834,32.97729-23.92188,44.83459Z"/>
</svg>