<?xml version="1.0" encoding="UTF-8"?>
<svg id="Capa_2" data-name="Capa 2" xmlns="http://www.w3.org/2000/svg" viewBox="0 0 532.2219 532.22192">
  <defs>
    <style>
      .cls-1 {
        fill: none;
      }
    </style>
  </defs>
  <path class="cls-1" d="M229.84743,249.86108c-4.3501,8.25-11.12988,14.44995-20.33984,18.60986l4.48975,13.87012-16.31006,5.28003-4.53955-14.04004c-12.28027,2.41992-22.08008,1.03003-29.42041-4.25-7.31982-5.26001-13.14014-14.5-17.40967-27.7002l-1.69043-5.19995,32.82031-10.62988,1.29004,3.97998c3.12988,9.65991,7.77002,13.52002,13.84961,11.54004,2.65039-.8501,4.32031-2.28003,5.01025-4.32007s.68994-4.1499-.02002-6.3501c-1.25977-3.88989-4.52002-7.22998-9.77979-9.96997l-35.92041-18.48999c-13.13965-6.70996-21.60986-15.87988-25.37988-27.52002-2.04004-6.29004-2.38965-12.29004-1.08008-18.04004,1.28027-5.73975,3.84033-10.88989,7.58008-15.48975,3.77002-4.59009,8.31006-8.29004,13.65039-11.13013l-3.7002-11.41992,16.31006-5.28003,3.60986,11.12988c11.2002-2.09985,20.81006-.31006,28.83008,5.3501,8.02979,5.66992,14.04004,14.66992,18.02979,27.01001l-33.68994,10.90991-1.97998-6.13989c-.87988-2.70996-2.25977-4.54004-4.18018-5.54004-1.90967-.97998-4.07959-1.06006-6.44971-.29004-2.6499.8501-4.41016,2.15991-5.31982,3.90015-.88037,1.73975-.97021,3.72998-.26025,5.92993,1.01025,3.12988,5.62988,6.79004,13.8501,10.92993l34.8501,17.48999c5.12988,2.56006,10,6.13989,14.56982,10.69995,4.56006,4.56006,7.96973,10.30005,10.20996,17.22021,3.35986,10.36987,2.87012,19.68994-1.47998,27.94995Z"/>
  <path d="M283.55739,463.76098c.1001-.21997.20996-.5.33008-.83008-.10986.33008-.22021.61011-.33008.83008Z"/>
  <path d="M285.39772,456.63086c-.44043,2.4502-1.01025,4.8501-1.51025,6.30005.48975-1.43994,1.06006-3.83984,1.5-6.30005h.01025Z"/>
  <path d="M276.69753,471.68091c-.16992.12012-.3501.25-.53027.37012v-.01001c.18018-.12012.36035-.23999.53027-.36011Z"/>
  <path d="M284.49733,319.66113c.16992-44.83008,22.79004-87.21021,21.47998-131.68018,1.43018,44.48999-21.18994,86.86011-21.47998,131.68018Z"/>
  <path d="M288.93727,357.65088c.04004,3.25-.35986,6.39014-1.5,9.32007-.0498.01001-.1001.02002-.1499.03003,1.20996-2.93994,1.6499-6.08008,1.6499-9.3501Z"/>
  <path d="M296.63747,393.031h-.01025c-.01953-.07007-.04004-.13013-.06982-.19995.02979.06006.06006.12988.08008.19995Z"/>
  <path d="M379.75759,394.49096v-96.34009h96.06982v-79.12988h-96.06982v-82h100.11963V55.74096h-203.70996v19.76001c13.33008,12.41016,24.30029,27.20996,32.6001,43.98999,8.58008,17.3501,14.1001,36.43994,16.3999,56.73999,3.40039,29.97998-3.6499,57.76001-10.46973,84.63013-5.8999,23.26001-11.47998,45.23999-9.9502,67.10986.20996,3.07007.9502,6.75,1.72021,10.65991,1.61963,8.14014,3.45996,17.38013,1.89014,27.15015-.36035,2.19995-.92041,4.61011-1.80029,7.11987,5.31006,4.56006,9.14014,11.3501,10.3999,19.33008.44043,2.79004.5,5.52002.20996,8.13013l.41992.59985c2.81055,3.95996,10.27051,14.4502,7.33008,27.22998-1.26953,5.51001-4.91992,13.25-15.1499,18.8501-.96973.53003-2.21973,1.12988-3.68994,1.77002.12988,2.94995-.1499,6.30005-.81982,10.31006-.6499,3.90991-1.81006,9.36987-3.64014,13.21997-.68018,1.43994-1.43994,2.82007-2.28027,4.13989h187.2002v-81.98999h-106.77979Z"/>
  <path d="M284.79762,329.35107c-.17041-2.34009-.26025-4.68018-.28027-7.01001-.02002-.90015-.02979-1.79004-.02002-2.67993.16992-44.83008,22.79004-87.21021,21.47998-131.68018-.08984-3.27002-.31006-6.55005-.68994-9.83984-10.96973-96.81006-102.6001-149.5-191.23975-106.9502-44.68018,21.47021-75.68018,82.13013-66.86035,130.90015,16.82031,93.17993,83.56006,100.23999,126.39014,168.21997,10.1001,16.02002,10.02002,35.3999,36.6001,30,13.77979-2.79004,54.12012-15.58008,65.95996-21.91992,5.97021-3.21021,9.37012-7.08008,11.1499-11.39014,1.20996-2.93994,1.6499-6.08008,1.6499-9.3501,0-.30981,0-.62988-.00977-.93994-.31006-8.69995-3.5-18.25-4.12988-27.35986ZM229.84743,249.86108c-4.3501,8.25-11.12988,14.44995-20.33984,18.60986l4.48975,13.87012-16.31006,5.28003-4.53955-14.04004c-12.28027,2.41992-22.08008,1.03003-29.42041-4.25-7.31982-5.26001-13.14014-14.5-17.40967-27.7002l-1.69043-5.19995,32.82031-10.62988,1.29004,3.97998c3.12988,9.65991,7.77002,13.52002,13.84961,11.54004,2.65039-.8501,4.32031-2.28003,5.01025-4.32007s.68994-4.1499-.02002-6.3501c-1.25977-3.88989-4.52002-7.22998-9.77979-9.96997l-35.92041-18.48999c-13.13965-6.70996-21.60986-15.87988-25.37988-27.52002-2.04004-6.29004-2.38965-12.29004-1.08008-18.04004,1.28027-5.73975,3.84033-10.88989,7.58008-15.48975,3.77002-4.59009,8.31006-8.29004,13.65039-11.13013l-3.7002-11.41992,16.31006-5.28003,3.60986,11.12988c11.2002-2.09985,20.81006-.31006,28.83008,5.3501,8.02979,5.66992,14.04004,14.66992,18.02979,27.01001l-33.68994,10.90991-1.97998-6.13989c-.87988-2.70996-2.25977-4.54004-4.18018-5.54004-1.90967-.97998-4.07959-1.06006-6.44971-.29004-2.6499.8501-4.41016,2.15991-5.31982,3.90015-.88037,1.73975-.97021,3.72998-.26025,5.92993,1.01025,3.12988,5.62988,6.79004,13.8501,10.92993l34.8501,17.48999c5.12988,2.56006,10,6.13989,14.56982,10.69995,4.56006,4.56006,7.96973,10.30005,10.20996,17.22021,3.35986,10.36987,2.87012,19.68994-1.47998,27.94995Z"/>
  <path d="M288.92751,356.71094c-.31006-8.69995-3.5-18.25-4.12988-27.35986-.17041-2.34009-.26025-4.68018-.28027-7.01001.03027,2.21997.12012,4.43994.28027,6.66992.62988,9.21997,3.8999,18.90015,4.12988,27.69995Z"/>
  <path d="M294.35768,402.52099l-86.66016,28.06006c-5.16992,1.67993-12.11035-10.26001-5.04004-15.55005l86.66016-28.07007c2.21973-.71997,4.27979.66016,5.75,2.8501.08008.10986.13965.20996.20996.33008.06982.10986.13965.21997.20996.33984.06982.12012.12988.23999.19971.36011.06006.10986.11035.20996.16016.30981.08008.16016.16016.32007.22998.47998.04004.08008.07031.16016.1001.23022.08008.17993.15967.35986.22998.53979.02002.06006.04004.11011.06006.16016.02979.08984.06006.17993.08984.27002.02979.06982.05029.12988.06982.19995,1.32031,3.91992,1,8.42993-2.26953,9.48999Z"/>
  <path d="M305.58718,421.99096v.38989c0,.15015-.00977.30005-.01953.44019-.01025.09985-.02002.18994-.04004.29004-.01025.09985-.02002.19995-.04004.30005-.02002.09985-.04004.19995-.06006.28979-.02979.1001-.05029.19995-.08008.30005s-.0498.18994-.08008.29004c-.04004.1001-.08008.20996-.12988.32007-.05029.11987-.1001.23999-.1499.35986-.07031.14014-.12988.27002-.2002.40015-.0498.08984-.10986.17993-.16016.27002-.05957.08984-.11963.18994-.18994.28979-.06006.09009-.12988.18018-.18994.27002-.06982.09009-.1499.19019-.22998.28003-.06982.09009-.14014.18018-.21973.26001-.09033.11011-.18994.21997-.30029.32007-.10986.11987-.22998.23999-.35986.3501-.12012.11987-.25.22998-.37988.34985-.1001.08008-.20996.15991-.31006.25-.12012.09009-.22998.16992-.3501.26001-.10986.09009-.22998.16992-.3501.26001-.12988.08008-.25977.16992-.38965.25-.13037.08008-.25.16992-.39014.25-.14014.09009-.30029.17993-.45996.27002-.10986.07007-.22021.12988-.34033.19995-.17969.1001-.37988.19995-.58984.31006-.21973.1001-.4502.21997-.70996.33984h-.00977c-.26025.12012-.53027.25-.83008.38013-.30029.13013-.62012.27002-.9502.40991-15.81006,6.70996-72.21973,24.9502-80.06006,24.97021-11.04004.02979-9.93994-12.8501-9.0498-13.14014l93.31982-30.21997c1.70996,2.40991,3.1499,4.73999,3.8501,6.94995.02002.06006.02979.12012.0498.17993.05029.15015.09033.30005.12012.44019.02979.09985.05029.20996.08008.30981.02002.11011.04004.21021.06006.31006.02002.11011.04004.20996.0498.32007.02002.1001.03027.19995.04004.30005.01025.09985.03027.20996.03027.30981.00977.11011.00977.20996.01953.32007Z"/>
  <path d="M285.38747,456.63086c-.43994,2.46021-1.01025,4.86011-1.5,6.30005-.12012.33008-.22998.61011-.33008.83008-.23975.51001-.50977.98999-.77979,1.46997-.05029.07007-.1001.14014-.14014.21997-.22998.38013-.47021.75-.72021,1.11011-.08008.11987-.16992.22998-.25977.3501-.22021.30981-.4502.60986-.68994.8999-.10986.12988-.22021.25-.33008.37988-.22998.27002-.47021.53003-.72021.79004-.11963.12012-.23975.25-.35986.37012-.27002.26001-.56006.52002-.83984.77002-.10986.08984-.2002.18994-.31006.27979-.37012.31006-.75977.61011-1.1499.90015-.18018.12988-.37012.26001-.56006.37988-.16992.12012-.3501.23999-.53027.36011-11.71973,7.55005-30.75,4.30005-35.12988-10.52002l38.89014-12.59009c.27979-.09985,3.56006-5.61987,5.93994-.6499.53027,1.11011.16016,4.80005-.47998,8.34985Z"/>
</svg>